<?xml version="1.0" encoding="utf-8"?>
<!-- Generator: Adobe Illustrator 21.0.0, SVG Export Plug-In . SVG Version: 6.00 Build 0)  -->
<svg version="1.1" id="Layer_1" xmlns="http://www.w3.org/2000/svg" xmlns:xlink="http://www.w3.org/1999/xlink" x="0px" y="0px"
	 viewBox="0 0 81.5 100.8" style="enable-background:new 0 0 81.5 100.8;" xml:space="preserve">
<style type="text/css">
	.st0{fill:#37474F;}
</style>
<g>
	<g>
		<path class="st0" d="M78.9,68.8c-7.8-1.4-13-8.1-12.1-15.9c0.6-5.7,3.9-9.7,9.2-11.9c0.3-0.1,0.6-0.2,0.9-0.3c1.3-0.6,1.7-1.8,1-3
			c-3.9-6.7-9.6-10.9-17.3-12.1c-2-0.3-4.2,0.3-6.2,0.8c-1.9,0.4-3.7,1-5.4,1.7c-4.8,1.9-9.5,1.9-14.3,0c-3.4-1.4-6.9-2.2-10.6-2.5
			c-2.5-0.2-4.8,0.5-6.9,1.6c-6.4,3.3-10.8,8.4-13.7,14.9c-2.7,6-3.5,12.3-2.7,18.8c1.3,11.7,5.5,22.2,12.8,31.5
			c2.3,2.9,4.9,5.5,8.4,6.9c0.8,0.3,1.7,0.6,2.6,0.8c0.9,0,1.8,0,2.7,0c9.8,0,19.6,0,29.3,0c1,0,1.9,0,2.9,0
			c5.6-1.3,9.2-5.3,12.4-9.7c4.1-5.6,7-11.9,9.1-18.6C81.3,70.1,80.6,69.1,78.9,68.8z"/>
		<path class="st0" d="M40.2,25.4c1.1,0,2.3-0.2,3.4-0.3c10.5-1.7,18.7-11,18.9-21.7c0-1.3-0.4-2.3-1.6-2.8c-0.6,0-1.3,0-1.9,0
			c-1.2,0.2-2.4,0.4-3.5,0.6C45.4,3.5,37.9,12.8,37.8,23.1C37.8,24.7,38.5,25.4,40.2,25.4z"/>
	</g>
</g>
</svg>
