<?xml version="1.0" encoding="utf-8"?>
<!-- Generator: Adobe Illustrator 21.0.0, SVG Export Plug-In . SVG Version: 6.00 Build 0)  -->
<svg version="1.1" id="Layer_1" xmlns="http://www.w3.org/2000/svg" xmlns:xlink="http://www.w3.org/1999/xlink" x="0px" y="0px"
	 viewBox="0 0 90.5 90.6" style="enable-background:new 0 0 90.5 90.6;" xml:space="preserve">
<style type="text/css">
	.st0{fill:#3B5998;}
</style>
<path class="st0" d="M89.7,40.3c-1-9-4.4-17-10.3-23.9c-2.6-3.1-5.6-5.9-8.9-8.2c-3.3-2.3-6.9-4-10.7-5.3c-4.6-1.6-9.6-2.5-14.5-2.5
	c-4.5,0-9.2,0.8-13.5,2.1C27.7,3.8,23.9,5.6,20.3,8c-1.3,0.9-2.6,1.9-3.9,2.9C8.4,17.6,3.3,26,1.3,36.3c-2.7,14.2,0.5,27,9.9,38.1
	c6.6,7.8,15,12.7,25,14.8c5,1,10.1,1.3,15.1,0.5c18.2-3,30.3-13.4,36.5-30.7c1.1-3.1,1.7-6.3,2-9.6c0.1-1.5,0.3-3,0.3-4.5
	C90,43.2,89.8,41.8,89.7,40.3z M48.6,36.6h9c-0.1,1.3-0.2,2.4-0.3,3.5c-0.2,2-0.5,4.1-0.6,6.1c0,0.6-0.3,0.9-0.9,0.8
	c-2.1,0-4.1,0-6.1,0h-1.1v1.2c0,9,0,18,0,27.1c0,0.9-0.2,1.2-1.1,1.1c-3.4,0-6.7,0-10.1,0c-1.2,0-1.2,0-1.2-1.2V46.9
	c-1.7,0-3.2,0-4.8,0c-0.7,0-1-0.2-1-1c0-2.9,0-5.7,0-8.6c0-0.7,0.2-1,1-0.9c1.6,0,3.1,0,4.8,0c0-0.5,0-1,0-1.5
	c0-2.9-0.2-5.8,0.5-8.7c1-4.7,4.7-8.2,9.5-8.5c3.6-0.3,7.2-0.1,10.8-0.2c0.5,0,0.7,0.2,0.7,0.7c0,3,0,5.9,0,8.8
	c0,0.6-0.3,0.7-0.8,0.7c-1.9,0-3.7,0-5.6,0c-1.8,0-2.7,0.9-2.7,2.7C48.5,32.5,48.6,34.5,48.6,36.6z"/>
</svg>
